<svg width="354" height="166" viewBox="0 0 354 166" fill="none" xmlns="http://www.w3.org/2000/svg">
<g clip-path="url(#clip0_107_12)">
<path d="M5.96591 116V50.5455H29.4886V116H5.96591ZM17.7273 43.7273C14.5455 43.7273 11.8182 42.6761 9.54545 40.5739C7.27273 38.4716 6.13636 35.9432 6.13636 32.9886C6.13636 30.0341 7.27273 27.5057 9.54545 25.4034C11.8182 23.3011 14.5455 22.25 17.7273 22.25C20.9375 22.25 23.6648 23.3011 25.9091 25.4034C28.1818 27.5057 29.3182 30.0341 29.3182 32.9886C29.3182 35.9432 28.1818 38.4716 25.9091 40.5739C23.6648 42.6761 20.9375 43.7273 17.7273 43.7273ZM54.1965 79.1818V116H30.6737V50.5455H53.0033V62.9886H53.6851C55.1055 58.8409 57.6055 55.5881 61.1851 53.2301C64.793 50.8722 68.9976 49.6932 73.7987 49.6932C78.4294 49.6932 82.4493 50.7585 85.8584 52.8892C89.2959 54.9915 91.9521 57.8892 93.8271 61.5824C95.7305 65.2756 96.668 69.4943 96.6396 74.2386V116H73.1169V79.1818C73.1453 75.9432 72.3215 73.4006 70.6453 71.554C68.9976 69.7074 66.6964 68.7841 63.7419 68.7841C61.8101 68.7841 60.1197 69.2102 58.6709 70.0625C57.2504 70.8864 56.1567 72.0795 55.3896 73.642C54.6226 75.1761 54.2249 77.0227 54.1965 79.1818ZM157.281 71.8523H135.634C135.52 70.517 135.051 69.3665 134.227 68.4006C133.404 67.4347 132.338 66.696 131.031 66.1847C129.753 65.6449 128.333 65.375 126.77 65.375C124.753 65.375 123.02 65.7443 121.571 66.483C120.122 67.2216 119.412 68.2727 119.44 69.6364C119.412 70.6023 119.824 71.4972 120.676 72.321C121.557 73.1449 123.247 73.7841 125.747 74.2386L139.043 76.625C145.747 77.8466 150.733 79.9062 154 82.804C157.296 85.6733 158.958 89.5227 158.986 94.3523C158.958 99.0114 157.565 103.06 154.81 106.497C152.083 109.906 148.347 112.548 143.602 114.423C138.887 116.27 133.503 117.193 127.452 117.193C117.452 117.193 109.625 115.148 103.972 111.057C98.3467 106.966 95.2075 101.568 94.5541 94.8636H117.906C118.219 96.9375 119.242 98.5426 120.975 99.679C122.736 100.787 124.952 101.341 127.622 101.341C129.781 101.341 131.557 100.972 132.949 100.233C134.369 99.4943 135.094 98.4432 135.122 97.0795C135.094 95.8295 134.469 94.8352 133.247 94.0966C132.054 93.358 130.179 92.7614 127.622 92.3068L116.031 90.2614C109.355 89.0966 104.355 86.8807 101.031 83.6136C97.7075 80.3466 96.0598 76.142 96.0882 71C96.0598 66.4545 97.253 62.6051 99.6678 59.4517C102.111 56.2699 105.591 53.8551 110.108 52.2074C114.654 50.5313 120.037 49.6932 126.259 49.6932C135.719 49.6932 143.176 51.6534 148.631 55.5739C154.114 59.4943 156.997 64.9205 157.281 71.8523ZM157.199 140.545V50.5455H180.551V61.9659H181.062C181.915 59.75 183.165 57.7187 184.812 55.8722C186.46 53.9972 188.506 52.5057 190.949 51.3977C193.392 50.2614 196.233 49.6932 199.471 49.6932C203.79 49.6932 207.895 50.8438 211.787 53.1449C215.707 55.446 218.889 59.0682 221.332 64.0114C223.804 68.9545 225.04 75.375 225.04 83.2727C225.04 90.8295 223.861 97.0937 221.503 102.065C219.173 107.037 216.048 110.744 212.128 113.188C208.236 115.631 203.96 116.852 199.301 116.852C196.233 116.852 193.491 116.355 191.077 115.361C188.69 114.338 186.645 112.96 184.94 111.227C183.264 109.466 181.971 107.477 181.062 105.261H180.721V140.545H157.199ZM180.21 83.2727C180.21 86.4545 180.622 89.2102 181.446 91.5398C182.298 93.8409 183.491 95.6307 185.025 96.9091C186.588 98.1591 188.449 98.7841 190.608 98.7841C192.767 98.7841 194.599 98.1733 196.105 96.9517C197.639 95.7017 198.804 93.9261 199.599 91.625C200.423 89.2955 200.835 86.5114 200.835 83.2727C200.835 80.0341 200.423 77.2642 199.599 74.9631C198.804 72.6335 197.639 70.858 196.105 69.6364C194.599 68.3864 192.767 67.7614 190.608 67.7614C188.449 67.7614 186.588 68.3864 185.025 69.6364C183.491 70.858 182.298 72.6335 181.446 74.9631C180.622 77.2642 180.21 80.0341 180.21 83.2727ZM224.094 116V50.5455H247.617V116H224.094ZM235.855 43.7273C232.674 43.7273 229.946 42.6761 227.674 40.5739C225.401 38.4716 224.264 35.9432 224.264 32.9886C224.264 30.0341 225.401 27.5057 227.674 25.4034C229.946 23.3011 232.674 22.25 235.855 22.25C239.066 22.25 241.793 23.3011 244.037 25.4034C246.31 27.5057 247.446 30.0341 247.446 32.9886C247.446 35.9432 246.31 38.4716 244.037 40.5739C241.793 42.6761 239.066 43.7273 235.855 43.7273ZM248.802 116V50.5455H271.643V62.9886H272.325C273.518 58.3864 275.407 55.0199 277.992 52.8892C280.606 50.7585 283.66 49.6932 287.154 49.6932C288.177 49.6932 289.185 49.7784 290.18 49.9489C291.202 50.0909 292.183 50.304 293.12 50.5881V70.6591C291.955 70.2614 290.521 69.9631 288.816 69.7642C287.112 69.5653 285.648 69.4659 284.427 69.4659C282.126 69.4659 280.052 69.9915 278.205 71.0426C276.387 72.0653 274.952 73.5142 273.901 75.3892C272.85 77.2358 272.325 79.4091 272.325 81.9091V116H248.802ZM317.647 117.193C310.658 117.193 304.635 115.858 299.579 113.188C294.55 110.489 290.672 106.625 287.945 101.597C285.246 96.5398 283.897 90.4886 283.897 83.4432C283.897 76.6818 285.26 70.7727 287.988 65.7159C290.715 60.6591 294.564 56.7244 299.536 53.9119C304.508 51.0994 310.374 49.6932 317.135 49.6932C322.079 49.6932 326.553 50.4602 330.559 51.9943C334.564 53.5284 337.988 55.7585 340.829 58.6847C343.669 61.5824 345.857 65.1051 347.391 69.2528C348.925 73.4006 349.692 78.0739 349.692 83.2727V88.7273H291.226V75.7727H328.044C328.016 73.8977 327.533 72.25 326.596 70.8295C325.687 69.3807 324.451 68.2585 322.888 67.4631C321.354 66.6392 319.607 66.2273 317.647 66.2273C315.743 66.2273 313.996 66.6392 312.405 67.4631C310.814 68.2585 309.536 69.3665 308.57 70.7869C307.633 72.2074 307.135 73.8693 307.079 75.7727V89.75C307.079 91.8523 307.519 93.7273 308.4 95.375C309.28 97.0227 310.544 98.3153 312.192 99.2528C313.84 100.19 315.829 100.659 318.158 100.659C319.777 100.659 321.255 100.432 322.59 99.9773C323.954 99.5227 325.118 98.8693 326.084 98.017C327.05 97.1364 327.76 96.0852 328.215 94.8636H349.692C348.954 99.4091 347.206 103.358 344.451 106.71C341.695 110.034 338.044 112.619 333.499 114.466C328.982 116.284 323.698 117.193 317.647 117.193Z" fill="white"/>
<path d="M161.9 161V145H165.229V151.016H165.33C165.476 150.693 165.687 150.365 165.963 150.031C166.244 149.693 166.609 149.411 167.057 149.188C167.51 148.958 168.072 148.844 168.744 148.844C169.619 148.844 170.426 149.073 171.166 149.531C171.906 149.984 172.497 150.669 172.939 151.586C173.382 152.497 173.604 153.641 173.604 155.016C173.604 156.354 173.387 157.484 172.955 158.406C172.528 159.323 171.945 160.018 171.205 160.492C170.471 160.961 169.648 161.195 168.736 161.195C168.09 161.195 167.541 161.089 167.088 160.875C166.64 160.661 166.273 160.393 165.986 160.07C165.7 159.742 165.481 159.411 165.33 159.078H165.182V161H161.9ZM165.158 155C165.158 155.714 165.257 156.336 165.455 156.867C165.653 157.398 165.939 157.812 166.314 158.109C166.689 158.401 167.145 158.547 167.682 158.547C168.223 158.547 168.682 158.398 169.057 158.102C169.432 157.799 169.715 157.383 169.908 156.852C170.106 156.315 170.205 155.698 170.205 155C170.205 154.307 170.109 153.698 169.916 153.172C169.723 152.646 169.439 152.234 169.064 151.937C168.689 151.641 168.229 151.492 167.682 151.492C167.14 151.492 166.682 151.635 166.307 151.922C165.937 152.208 165.653 152.615 165.455 153.141C165.257 153.667 165.158 154.286 165.158 155ZM177.492 165.5C177.07 165.5 176.674 165.466 176.305 165.398C175.94 165.336 175.638 165.255 175.398 165.156L176.148 162.672C176.539 162.792 176.891 162.857 177.203 162.867C177.521 162.878 177.794 162.805 178.023 162.648C178.258 162.492 178.448 162.227 178.594 161.852L178.789 161.344L174.484 149H177.984L180.469 157.812H180.594L183.102 149H186.625L181.961 162.297C181.737 162.943 181.432 163.505 181.047 163.984C180.667 164.469 180.185 164.841 179.602 165.102C179.018 165.367 178.315 165.5 177.492 165.5Z" fill="#7F7F7F"/>
<g clip-path="url(#clip1_107_12)">
<path d="M228.9 142.326C226.857 134.334 219.518 128.417 210.773 128.417C200.448 128.417 192.078 136.665 192.078 146.839C192.078 157.013 200.448 165.261 210.773 165.261C219.518 165.261 226.857 159.344 228.9 151.352H221.011C219.26 155.205 215.335 157.892 210.773 157.892C204.579 157.892 199.556 152.942 199.556 146.839C199.556 140.734 204.579 135.786 210.773 135.786C215.335 135.786 219.258 138.473 221.011 142.326H228.9Z" fill="#ED1D24"/>
<path d="M267.971 146.839C267.971 136.665 259.601 128.417 249.276 128.417C238.952 128.417 230.582 136.665 230.582 146.839C230.582 157.013 238.952 165.261 249.276 165.261C259.601 165.261 267.971 157.013 267.971 146.839ZM260.493 146.839C260.493 152.942 255.472 157.892 249.276 157.892C243.081 157.892 238.06 152.942 238.06 146.839C238.06 140.734 243.081 135.786 249.276 135.786C255.472 135.786 260.493 140.734 260.493 146.839Z" fill="#ED1D24"/>
<path d="M270.396 117.417V164.36H278.589V117.415L270.396 117.417Z" fill="#ED1D24"/>
<path d="M316.461 148.499C316.514 147.898 316.54 147.284 316.54 146.658C316.562 133.018 306.046 128.417 298.78 128.417H298.776C291.51 128.417 281.001 133.018 281.023 146.658C281.001 157.969 289.336 165.264 298.776 165.26H298.78C306.411 165.262 313.316 160.499 315.674 152.704H307.633C305.809 156.201 302.437 158.261 298.78 158.261H298.776C293.833 158.263 289.405 154.495 288.619 148.493H308.937V148.499H316.461ZM298.776 135.048H298.78C302.19 135.048 306.832 136.953 308.467 142.254H289.094C290.724 136.953 295.367 135.048 298.776 135.048Z" fill="#ED1D24"/>
<path d="M332.789 165.17C323.339 165.17 317.921 160.684 317.921 152.862V152.705H325.317L325.324 152.858C325.646 157.024 328.306 159.05 333.449 159.05C337.728 159.05 340.392 157.329 340.392 154.556C340.392 152.204 338.583 151.329 335.021 150.451L329.799 149.149C325.91 148.209 323.313 147.1 321.631 145.66C319.773 144.077 318.913 142.04 318.913 139.252C318.913 136.059 320.159 133.367 322.523 131.47C324.933 129.533 328.415 128.508 332.589 128.508C336.916 128.508 340.545 129.567 343.088 131.567C345.604 133.544 346.929 136.337 346.929 139.644V139.709H339.601L339.595 139.648C339.399 136.28 336.884 134.499 332.325 134.499C328.742 134.499 326.51 135.896 326.51 138.147C326.51 140.647 328.716 141.646 332.278 142.446L336.703 143.422C343.98 145.086 347.922 147.21 347.922 153.643C347.922 157.177 346.56 160.096 343.98 162.088C341.374 164.103 337.5 165.17 332.789 165.17Z" fill="#ED1D24"/>
</g>
</g>
<defs>
<clipPath id="clip0_107_12">
<rect width="354" height="166" fill="white"/>
</clipPath>
<clipPath id="clip1_107_12">
<rect width="156" height="48" fill="white" transform="translate(192 118)"/>
</clipPath>
</defs>
</svg>
